<mxfile host="65bd71144e">
    <diagram id="0EVcSEtVSfbyqoVAQxXo" name="Page-1">
        <mxGraphModel dx="1211" dy="658" grid="1" gridSize="10" guides="1" tooltips="1" connect="1" arrows="1" fold="1" page="1" pageScale="1" pageWidth="2336" pageHeight="1654" math="0" shadow="0">
            <root>
                <mxCell id="0"/>
                <mxCell id="1" parent="0"/>
                <mxCell id="3" style="edgeStyle=orthogonalEdgeStyle;html=1;exitX=0.25;exitY=0;exitDx=0;exitDy=0;entryX=0.5;entryY=0;entryDx=0;entryDy=0;fontColor=#FFFFFF;endArrow=none;endFill=0;" parent="1" source="5" target="27" edge="1">
                    <mxGeometry relative="1" as="geometry">
                        <Array as="points">
                            <mxPoint x="820" y="390"/>
                            <mxPoint x="1680" y="390"/>
                        </Array>
                    </mxGeometry>
                </mxCell>
                <mxCell id="4" style="edgeStyle=orthogonalEdgeStyle;html=1;exitX=0.75;exitY=0;exitDx=0;exitDy=0;entryX=0.5;entryY=0;entryDx=0;entryDy=0;fontColor=#FFFFFF;endArrow=none;endFill=0;" parent="1" source="5" target="21" edge="1">
                    <mxGeometry relative="1" as="geometry">
                        <Array as="points">
                            <mxPoint x="880" y="430"/>
                            <mxPoint x="1318" y="430"/>
                        </Array>
                    </mxGeometry>
                </mxCell>
                <mxCell id="5" value="UTILISATEUR" style="whiteSpace=wrap;html=1;" parent="1" vertex="1">
                    <mxGeometry x="790" y="662" width="120" height="60" as="geometry"/>
                </mxCell>
                <mxCell id="6" value="ENTREPRISE" style="whiteSpace=wrap;html=1;" parent="1" vertex="1">
                    <mxGeometry x="1258" y="662" width="120" height="60" as="geometry"/>
                </mxCell>
                <mxCell id="9" style="edgeStyle=none;html=1;exitX=1;exitY=0.5;exitDx=0;exitDy=0;entryX=0.5;entryY=1;entryDx=0;entryDy=0;endArrow=none;endFill=0;" parent="1" source="11" target="6" edge="1">
                    <mxGeometry relative="1" as="geometry"/>
                </mxCell>
                <mxCell id="11" value="ROLE" style="whiteSpace=wrap;html=1;" parent="1" vertex="1">
                    <mxGeometry x="1138" y="870" width="120" height="60" as="geometry"/>
                </mxCell>
                <mxCell id="13" value="1, N" style="text;strokeColor=none;align=center;fillColor=none;html=1;verticalAlign=middle;whiteSpace=wrap;rounded=0;fontColor=#00FF00;" parent="1" vertex="1">
                    <mxGeometry x="1210" y="662" width="60" height="30" as="geometry"/>
                </mxCell>
                <mxCell id="14" value="0, N" style="text;strokeColor=none;align=center;fillColor=none;html=1;verticalAlign=middle;whiteSpace=wrap;rounded=0;fontColor=#33FFFF;" parent="1" vertex="1">
                    <mxGeometry x="1308" y="722" width="60" height="30" as="geometry"/>
                </mxCell>
                <mxCell id="15" value="1, 1" style="text;strokeColor=none;align=center;fillColor=none;html=1;verticalAlign=middle;whiteSpace=wrap;rounded=0;fontColor=#FFCCFF;" parent="1" vertex="1">
                    <mxGeometry x="1248" y="880" width="60" height="30" as="geometry"/>
                </mxCell>
                <mxCell id="20" style="edgeStyle=none;html=1;exitX=0.5;exitY=1;exitDx=0;exitDy=0;entryX=0.5;entryY=0;entryDx=0;entryDy=0;fontColor=#FFFFFF;endArrow=none;endFill=0;" parent="1" source="21" target="6" edge="1">
                    <mxGeometry relative="1" as="geometry"/>
                </mxCell>
                <mxCell id="21" value="&lt;font color=&quot;#ffffff&quot;&gt;FACTURES&lt;/font&gt;" style="whiteSpace=wrap;html=1;fontColor=#FFFF99;" parent="1" vertex="1">
                    <mxGeometry x="1258" y="460" width="120" height="60" as="geometry"/>
                </mxCell>
                <mxCell id="24" style="edgeStyle=none;html=1;exitX=0;exitY=1;exitDx=0;exitDy=0;entryX=1;entryY=0;entryDx=0;entryDy=0;fontColor=#FFFFFF;endArrow=none;endFill=0;" parent="1" source="27" target="6" edge="1">
                    <mxGeometry relative="1" as="geometry"/>
                </mxCell>
                <mxCell id="26" style="edgeStyle=none;html=1;exitX=0;exitY=0.5;exitDx=0;exitDy=0;entryX=1;entryY=0.5;entryDx=0;entryDy=0;fontColor=#FFFFFF;endArrow=none;endFill=0;" parent="1" source="27" target="21" edge="1">
                    <mxGeometry relative="1" as="geometry"/>
                </mxCell>
                <mxCell id="27" value="DEVIS" style="whiteSpace=wrap;html=1;fontColor=#FFFFFF;" parent="1" vertex="1">
                    <mxGeometry x="1620" y="420" width="120" height="60" as="geometry"/>
                </mxCell>
                <mxCell id="28" value="0, N" style="text;strokeColor=none;align=center;fillColor=none;html=1;verticalAlign=middle;whiteSpace=wrap;rounded=0;fontColor=#33FFFF;" parent="1" vertex="1">
                    <mxGeometry x="1270" y="632" width="60" height="30" as="geometry"/>
                </mxCell>
                <mxCell id="29" value="" style="edgeStyle=none;html=1;exitX=1;exitY=0.5;exitDx=0;exitDy=0;entryX=0;entryY=0.5;entryDx=0;entryDy=0;fontColor=#FFFFFF;endArrow=none;endFill=0;" parent="1" source="21" edge="1">
                    <mxGeometry relative="1" as="geometry">
                        <mxPoint x="1378" y="490" as="sourcePoint"/>
                        <mxPoint x="1378" y="475" as="targetPoint"/>
                    </mxGeometry>
                </mxCell>
                <mxCell id="30" value="" style="edgeStyle=none;html=1;fontColor=#FFFFFF;endArrow=none;endFill=0;" parent="1" source="31" target="21" edge="1">
                    <mxGeometry relative="1" as="geometry"/>
                </mxCell>
                <mxCell id="31" value="1, 1" style="text;strokeColor=none;align=center;fillColor=none;html=1;verticalAlign=middle;whiteSpace=wrap;rounded=0;fontColor=#FFCCFF;" parent="1" vertex="1">
                    <mxGeometry x="1270" y="520" width="60" height="30" as="geometry"/>
                </mxCell>
                <mxCell id="34" value="1, 1" style="text;strokeColor=none;align=center;fillColor=none;html=1;verticalAlign=middle;whiteSpace=wrap;rounded=0;fontColor=#FFCCFF;" parent="1" vertex="1">
                    <mxGeometry x="1570" y="460" width="60" height="30" as="geometry"/>
                </mxCell>
                <mxCell id="36" value="0, N" style="text;strokeColor=none;align=center;fillColor=none;html=1;verticalAlign=middle;whiteSpace=wrap;rounded=0;fontColor=#33FFFF;" parent="1" vertex="1">
                    <mxGeometry x="1350" y="622" width="60" height="30" as="geometry"/>
                </mxCell>
                <mxCell id="38" value="1, 1" style="text;strokeColor=none;align=center;fillColor=none;html=1;verticalAlign=middle;whiteSpace=wrap;rounded=0;fontColor=#FFCCFF;" parent="1" vertex="1">
                    <mxGeometry x="1378" y="460" width="60" height="30" as="geometry"/>
                </mxCell>
                <mxCell id="40" value="0, N" style="text;strokeColor=none;align=center;fillColor=none;html=1;verticalAlign=middle;whiteSpace=wrap;rounded=0;fontColor=#66FFFF;" parent="1" vertex="1">
                    <mxGeometry x="870" y="632" width="60" height="30" as="geometry"/>
                </mxCell>
                <mxCell id="41" value="0, N" style="text;strokeColor=none;align=center;fillColor=none;html=1;verticalAlign=middle;whiteSpace=wrap;rounded=0;fontColor=#66FFFF;" parent="1" vertex="1">
                    <mxGeometry x="770" y="632" width="60" height="30" as="geometry"/>
                </mxCell>
                <mxCell id="42" value="1, 1" style="text;strokeColor=none;align=center;fillColor=none;html=1;verticalAlign=middle;whiteSpace=wrap;rounded=0;fontColor=#FFCCFF;" parent="1" vertex="1">
                    <mxGeometry x="1270" y="430" width="60" height="30" as="geometry"/>
                </mxCell>
                <mxCell id="43" value="1, 1" style="text;strokeColor=none;align=center;fillColor=none;html=1;verticalAlign=middle;whiteSpace=wrap;rounded=0;fontColor=#FFCCFF;" parent="1" vertex="1">
                    <mxGeometry x="1570" y="420" width="60" height="30" as="geometry"/>
                </mxCell>
                <mxCell id="58" style="edgeStyle=none;html=1;exitX=1;exitY=0.5;exitDx=0;exitDy=0;entryX=0;entryY=0.5;entryDx=0;entryDy=0;fontColor=#00FF00;endArrow=none;endFill=0;" parent="1" source="57" target="11" edge="1">
                    <mxGeometry relative="1" as="geometry"/>
                </mxCell>
                <mxCell id="59" style="edgeStyle=none;html=1;exitX=0.5;exitY=0;exitDx=0;exitDy=0;entryX=0.5;entryY=1;entryDx=0;entryDy=0;fontColor=#00FF00;endArrow=none;endFill=0;" parent="1" source="57" target="5" edge="1">
                    <mxGeometry relative="1" as="geometry"/>
                </mxCell>
                <mxCell id="57" value="ASSOC-UTILISATEUR-ROLE" style="ellipse;whiteSpace=wrap;html=1;" parent="1" vertex="1">
                    <mxGeometry x="890" y="860" width="120" height="80" as="geometry"/>
                </mxCell>
                <mxCell id="61" value="1, 1" style="text;strokeColor=none;align=center;fillColor=none;html=1;verticalAlign=middle;whiteSpace=wrap;rounded=0;fontColor=#FFCCFF;" parent="1" vertex="1">
                    <mxGeometry x="890" y="840" width="60" height="30" as="geometry"/>
                </mxCell>
                <mxCell id="62" value="1, 1" style="text;strokeColor=none;align=center;fillColor=none;html=1;verticalAlign=middle;whiteSpace=wrap;rounded=0;fontColor=#FFCCFF;" parent="1" vertex="1">
                    <mxGeometry x="990" y="870" width="60" height="30" as="geometry"/>
                </mxCell>
                <mxCell id="63" value="0, N" style="text;strokeColor=none;align=center;fillColor=none;html=1;verticalAlign=middle;whiteSpace=wrap;rounded=0;fontColor=#66FFFF;" parent="1" vertex="1">
                    <mxGeometry x="810" y="722" width="60" height="30" as="geometry"/>
                </mxCell>
                <mxCell id="64" value="0, N" style="text;strokeColor=none;align=center;fillColor=none;html=1;verticalAlign=middle;whiteSpace=wrap;rounded=0;fontColor=#66FFFF;" parent="1" vertex="1">
                    <mxGeometry x="1090" y="870" width="60" height="30" as="geometry"/>
                </mxCell>
                <mxCell id="65" value="1, 1" style="text;strokeColor=none;align=center;fillColor=none;html=1;verticalAlign=middle;whiteSpace=wrap;rounded=0;fontColor=#FFCCFF;" parent="1" vertex="1">
                    <mxGeometry x="1630" y="390" width="60" height="30" as="geometry"/>
                </mxCell>
                <mxCell id="68" style="edgeStyle=none;html=1;exitX=1;exitY=0.5;exitDx=0;exitDy=0;entryX=1;entryY=1;entryDx=0;entryDy=0;fontColor=#00FF00;endArrow=none;endFill=0;" parent="1" source="67" target="13" edge="1">
                    <mxGeometry relative="1" as="geometry"/>
                </mxCell>
                <mxCell id="69" style="edgeStyle=none;html=1;exitX=0;exitY=0.5;exitDx=0;exitDy=0;entryX=1;entryY=0.5;entryDx=0;entryDy=0;fontColor=#00FF00;endArrow=none;endFill=0;" parent="1" source="67" target="5" edge="1">
                    <mxGeometry relative="1" as="geometry"/>
                </mxCell>
                <mxCell id="67" value="ASSOC-ENTREPRISE-UTILISATEUR" style="ellipse;whiteSpace=wrap;html=1;" parent="1" vertex="1">
                    <mxGeometry x="1018" y="652" width="120" height="80" as="geometry"/>
                </mxCell>
                <mxCell id="70" value="&lt;font color=&quot;#33ffff&quot;&gt;0, N&lt;/font&gt;" style="text;strokeColor=none;align=center;fillColor=none;html=1;verticalAlign=middle;whiteSpace=wrap;rounded=0;fontColor=#00FF00;" parent="1" vertex="1">
                    <mxGeometry x="900" y="662" width="60" height="30" as="geometry"/>
                </mxCell>
                <mxCell id="71" value="1, 1" style="text;strokeColor=none;align=center;fillColor=none;html=1;verticalAlign=middle;whiteSpace=wrap;rounded=0;fontColor=#FFCCFF;" parent="1" vertex="1">
                    <mxGeometry x="970" y="662" width="60" height="30" as="geometry"/>
                </mxCell>
                <mxCell id="72" value="1, 1" style="text;strokeColor=none;align=center;fillColor=none;html=1;verticalAlign=middle;whiteSpace=wrap;rounded=0;fontColor=#FFCCFF;" parent="1" vertex="1">
                    <mxGeometry x="1120" y="662" width="60" height="30" as="geometry"/>
                </mxCell>
                <mxCell id="73" value="DEVIS" style="swimlane;fontStyle=0;childLayout=stackLayout;horizontal=1;startSize=30;horizontalStack=0;resizeParent=1;resizeParentMax=0;resizeLast=0;collapsible=1;marginBottom=0;whiteSpace=wrap;html=1;" vertex="1" parent="1">
                    <mxGeometry x="1740" y="420" width="140" height="90" as="geometry"/>
                </mxCell>
                <mxCell id="74" value="ID" style="text;strokeColor=none;fillColor=none;align=left;verticalAlign=middle;spacingLeft=4;spacingRight=4;overflow=hidden;points=[[0,0.5],[1,0.5]];portConstraint=eastwest;rotatable=0;whiteSpace=wrap;html=1;" vertex="1" parent="73">
                    <mxGeometry y="30" width="140" height="30" as="geometry"/>
                </mxCell>
                <mxCell id="78" value="ID" style="text;strokeColor=none;fillColor=none;align=left;verticalAlign=middle;spacingLeft=4;spacingRight=4;overflow=hidden;points=[[0,0.5],[1,0.5]];portConstraint=eastwest;rotatable=0;whiteSpace=wrap;html=1;" vertex="1" parent="73">
                    <mxGeometry y="60" width="140" height="30" as="geometry"/>
                </mxCell>
            </root>
        </mxGraphModel>
    </diagram>
</mxfile>